<?xml version="1.0" encoding="utf-8"?>
<svg viewBox="0 0 500 500" width="500" height="500" xmlns="http://www.w3.org/2000/svg" xmlns:bx="https://boxy-svg.com">
  <ellipse style="stroke: rgb(255, 255, 255); fill: rgb(255, 255, 255);" cx="144.932" cy="247.952" rx="27.965" ry="27.965"/>
  <ellipse style="stroke: rgb(255, 255, 255); fill: rgb(255, 255, 255);" cx="330.58" cy="249.317" rx="27.965" ry="27.965"/>
  <ellipse style="fill: rgb(255, 255, 255); stroke: rgb(255, 255, 255);" cx="330.58" cy="108.178" rx="27.965" ry="27.965"/>
  <ellipse style="fill: rgb(255, 255, 255); stroke: rgb(255, 255, 255);" cx="330.58" cy="391.822" rx="27.965" ry="27.965"/>
  <path style="fill: none; stroke: rgb(255, 255, 255); stroke-width: 10px;" d="M 303.281 104.847 L 286.068 104.039 C 268.854 103.231 234.427 101.616 216.935 125.437 C 199.442 149.259 198.885 198.518 198.606 223.148 C 198.327 247.777 198.327 247.777 198.327 247.777 C 198.327 247.777 198.327 247.777 215.942 247.772 C 233.556 247.767 268.785 247.758 286.4 247.753 L 304.014 247.748" bx:d="M 303.281 104.847 U 200 100 U 198.327 247.777 U 198.327 247.777 U 198.327 247.777 U 304.014 247.748 1@cb2159c1"/>
  <path style="fill: none; stroke: rgb(255, 255, 255); stroke-width: 10px;" d="M 303.61 392.093 L 286.342 393.411 C 269.073 394.729 234.537 397.364 217.069 373.309 C 199.602 349.254 199.203 298.507 199.004 273.134 L 198.805 247.761" bx:d="M 303.61 392.093 U 200 400 U 198.805 247.761 1@680c7d34"/>
  <path style="stroke: rgb(255, 255, 255); fill: rgb(12, 7, 7); stroke-width: 10px;" d="M 200.494 246.959 L 169.323 247.508" bx:d="M 200.494 246.959 U 169.323 247.508 1@e1992556"/>
</svg>