<?xml version="1.0" encoding="utf-8"?>
<svg viewBox="0 0 500 500" width="500" height="500" xmlns="http://www.w3.org/2000/svg" xmlns:bx="https://boxy-svg.com">
  <ellipse style="stroke: rgb(255, 255, 255); fill: rgb(255, 255, 255);" cx="72.035" cy="399.386" rx="27.965" ry="27.965"/>
  <ellipse style="stroke: rgb(255, 255, 255); fill: rgb(255, 255, 255);" cx="401.237" cy="100.757" rx="27.965" ry="27.965"/>
  <ellipse style="fill: rgb(255, 255, 255); stroke: rgb(255, 255, 255);" cx="250" cy="250" rx="27.965" ry="27.965"/>
  <ellipse style="fill: rgb(255, 255, 255); stroke: rgb(255, 255, 255);" cx="400.258" cy="400.264" rx="27.965" ry="27.965"/>
  <ellipse style="fill: rgb(255, 255, 255); stroke: rgb(255, 255, 255);" cx="172.035" cy="172.035" rx="27.965" ry="27.965"/>
  <ellipse style="fill: rgb(255, 255, 255); stroke: rgb(255, 255, 255);" cx="400.228" cy="250.167" rx="27.965" ry="27.965"/>
  <path style="fill: none; stroke: rgb(255, 255, 255); stroke-width: 10px;" d="M 400.693 251.597 L 400.693 251.597 C 400.693 251.597 400.693 251.597 400.693 251.597 C 400.693 251.597 400.693 251.597 375.756 251.427 C 350.819 251.257 300.946 250.917 276.009 250.747 C 251.072 250.577 251.072 250.577 251.072 250.577 C 251.072 250.577 251.072 250.577 237.978 237.212 C 224.884 223.846 198.696 197.115 185.602 183.749 L 172.508 170.384" bx:d="M 400.693 251.597 U 400.693 251.597 U 400.693 251.597 U 251.072 250.577 U 251.072 250.577 U 251.072 250.577 U 172.508 170.384 1@5850b6a1"/>
  <path style="fill: none; stroke: rgb(255, 255, 255); stroke-width: 10px;" d="M 400.769 400.934 L 376.007 375.787 C 351.245 350.64 301.72 300.346 276.958 275.199 C 252.196 250.052 252.196 250.052 252.196 250.052 C 252.196 250.052 252.196 250.052 222.48 275.051 C 192.764 300.049 133.332 350.046 103.616 375.045 L 73.9 400.043" bx:d="M 400.769 400.934 U 252.196 250.052 U 252.196 250.052 U 252.196 250.052 U 73.9 400.043 1@43376227"/>
  <path style="fill: rgb(216, 216, 216); stroke-width: 10px; stroke: rgb(255, 255, 255);" d="M 400.638 99.961 L 251.758 250.96" bx:d="M 400.638 99.961 U 251.758 250.96 1@88203f18"/>
</svg>